<svg xmlns="http://www.w3.org/2000/svg" width="100" height="100" viewBox="0 0 100 100">
    <path d="M20 99.5 L24 65 L19 65 A10 10 0 0 1 20 60 A0 0 0 0 0 18 59 L18 59 L15 50 L18 40 L27 36.5 A0.1 0.05 0 0 1 29 34 L27 33 L24 29 L24 25 L26 20 L29 17 L32 15 L35 13.8 L38 13.9 L41 13.5 L46 15   L46.5 15 L48.5 17 L51.5 22 L52 26.5 L51 30 L47.5 33.5 A0.15 0.05 0 0 1 46 35.5 L56.5 38.8 L58.2 49.2 L54 59 A0 0 0 0 1 51.8 58.8 A10 10 0 0 1 54.2 65 L49 65 L49.5 99   L42 99 L38 69 A0.9 0.6 0 0 0 34 69 L27 99.5 L20 99.5" fill="black" stroke="black" stroke-width="1"/>
</svg>