<svg xmlns="http://www.w3.org/2000/svg" width="600" height="800" viewBox="0 0 72.5 100">
    <path d="M20 99.5 L24 65 L19 65 A10 10 0 0 1 20 60 A0 0 0 0 0 18 59 L18 59 L15 50 L18 40 L30 35 A0.1 0.08 0 0 1 29.5 33.6 L27.3 30 L26.2 25 L26.5 21 L27.5 18 L29.3 16 L32 14.1 L35 13 L38 12.7 L41 13   L44.8 14.8 L46.4 17 L47.3 19 L47.8 22 L47.4 26.5 L46.1 30 L44 33.5 A0.1 0.08 0 0 1 44.5 35 L56.5 38.8 L58.2 49.2 L54 59 A0 0 0 0 1 51.8 58.8 A10 10 0 0 1 54.2 65 L49 65 L49.5 99   L42 99 L38 69 A0.9 0.6 0 0 0 34 69 L27 99.5 L19.5 99.5" fill="black" stroke="black" stroke-width="1"/>
</svg>